<svg id="e88d360e-666b-41b5-b4bd-4ad46a97addc" data-name="IIT" xmlns="http://www.w3.org/2000/svg" xmlns:xlink="http://www.w3.org/1999/xlink" viewBox="0 0 1613 621.85"><defs><clipPath id="42026848-95b0-4997-838d-64fc14422c41" transform="translate(-154 -209)"><rect x="154" y="705" width="1613" height="125.85" fill="none"/></clipPath><clipPath id="f1aa519c-66f2-41b0-894c-b85e365bbd20" transform="translate(-154 -209)"><rect x="168.19" y="209" width="1584.81" height="351.15" fill="none"/></clipPath></defs><title>iit-thumbnail</title><polygon points="79.54 534.03 86.05 537.24 87.07 529.69 80.03 526.81 79.54 534.03 79.54 534.03" fill="#ce0e2d"/><path d="M163.91,705c-.7,0-.79.36,0,.59,2,.61,63.52,20.44,63.52,20.44v-6.73S168.45,706,166.92,705.57a25.25,25.25,0,0,0-3-.56Z" transform="translate(-154 -209)" fill="#ce0e2d"/><polygon points="89.18 513.96 80.97 512.06 80.5 519.32 88.13 521.75 89.18 513.96 89.18 513.96" fill="#ce0e2d"/><polygon points="91.58 496.05 82 496.06 81.48 504.16 90.35 505.28 91.58 496.05 91.58 496.05" fill="#ce0e2d"/><polygon points="107.09 518.1 98.08 516.01 96.28 524.36 104.4 526.95 107.09 518.1 107.09 518.1" fill="#ce0e2d"/><path d="M227.39,705.06h-52c-.4,0-.66,0-.72.1s0,.37.62.45c1.7.23,52.1,6.53,52.1,6.53v-7.09Z" transform="translate(-154 -209)" fill="#ce0e2d"/><polygon points="92.78 540.56 99.29 543.77 101.74 535.71 94.48 532.73 92.78 540.56 92.78 540.56" fill="#ce0e2d"/><polygon points="113.78 496.04 102.39 496.04 100.14 506.51 110.22 507.78 113.78 496.04 113.78 496.04" fill="#ce0e2d"/><g clip-path="url(#42026848-95b0-4997-838d-64fc14422c41)"><polygon points="109.84 539.02 106.39 547.27 113.7 550.87 118.48 542.55 109.84 539.02 109.84 539.02" fill="#ce0e2d"/><path d="M157.72,705.07c-.47.33.48.63,1.27,1,.46.27,68.41,33.9,68.41,33.9v-6.9l-67.2-27.34c-1.1-.43-2.08-1-2.48-.69Z" transform="translate(-154 -209)" fill="#ce0e2d"/><polygon points="127.83 496.02 122.29 509.3 136.58 511.09 145.26 496 127.83 496.02 127.83 496.02" fill="#ce0e2d"/><path d="M227.39,829.93c0-.67,0-83.33,0-83.33l-72.74-41.28c-1-.6-.63.29-.25.94,6.74,11.66,72,123.73,72.21,124.09.57.84.8.58.77-.42Z" transform="translate(-154 -209)" fill="#ce0e2d"/></g><polygon points="117.58 520.52 113.65 529.91 123.88 533.17 129.56 523.29 117.58 520.52 117.58 520.52" fill="#ce0e2d"/><path d="M239.1,753.34l-6-3.45s-4.44,75.67-4.43,76.35c-.1,1-.12,1.69.39,1.69s.45-1.76.54-2.52c.14-1,9.49-72.07,9.49-72.07Z" transform="translate(-154 -209)" fill="#ce0e2d"/><path d="M257.22,763.81s-19.63,46.56-20.3,48.31c-.24.58-.18.74,0,.85s.33-.17.55-.56c1.8-3.17,25.88-45,25.88-45l-6.17-3.55Z" transform="translate(-154 -209)" fill="#ce0e2d"/><path d="M251,760.23l-5.83-3.36S231.54,821,231.25,822a2,2,0,0,0,0,.48c.06.27.15.52.5.09a18.3,18.3,0,0,0,1-3.06c.15-.55,18.29-59.32,18.29-59.32Z" transform="translate(-154 -209)" fill="#ce0e2d"/><path d="M1131.85,740.89a26.53,26.53,0,1,1-26.72,26.6,26.75,26.75,0,0,1,26.72-26.6Zm0,5.31a21.22,21.22,0,1,0,21,21.22,21.07,21.07,0,0,0-21-21.22Z" transform="translate(-154 -209)" fill="#231f20" fill-rule="evenodd"/><polygon points="198.53 532.57 192.82 532.57 192.82 583.85 198.53 583.85 198.53 532.57 198.53 532.57 198.53 532.57" fill="#231f20"/><polygon points="220.12 532.57 214.41 532.57 214.41 583.85 244.06 583.85 244.06 578.54 220.12 578.54 220.12 532.57 220.12 532.57 220.12 532.57" fill="#231f20"/><polygon points="259.78 532.57 254.06 532.57 254.06 583.85 283.71 583.85 283.71 578.54 259.78 578.54 259.78 532.57 259.78 532.57 259.78 532.57" fill="#231f20"/><polygon points="302.41 532.57 296.7 532.57 296.7 583.85 302.41 583.85 302.41 532.57 302.41 532.57 302.41 532.57" fill="#231f20"/><polygon points="321.49 583.85 327.21 583.85 327.21 544.33 367.19 586.16 367.19 532.57 361.48 532.57 361.48 572.28 321.49 530.39 321.49 583.85 321.49 583.85 321.49 583.85" fill="#231f20"/><path d="M559,746a21.22,21.22,0,1,1-21,21.22A21.07,21.07,0,0,1,559,746Zm0-5.29a26.52,26.52,0,1,0,26.71,26.59A26.74,26.74,0,0,0,559,740.69Z" transform="translate(-154 -209)" fill="#231f20" fill-rule="evenodd"/><polygon points="451.07 532.57 445.36 532.57 445.36 583.85 451.07 583.85 451.07 532.57 451.07 532.57 451.07 532.57" fill="#231f20"/><polygon points="545.36 532.57 539.64 532.57 539.64 583.85 545.36 583.85 545.36 532.57 545.36 532.57 545.36 532.57" fill="#231f20"/><polygon points="564.42 583.85 570.14 583.85 570.14 544.33 610.13 586.16 610.13 532.57 604.42 532.57 604.42 572.28 564.42 530.39 564.42 583.85 564.42 583.85 564.42 583.85" fill="#231f20"/><path d="M809.48,748.64c-2.72-5-9.38-7.95-15.1-7.95-7.61,0-15,5.09-15,13,0,7.35,3.7,9.29,9.68,12l5.82,2.46c4.76,2.18,10.68,4.22,10.68,10.2,0,5.78-5.65,10-11.15,10s-11.36-4.28-12.11-9.52l-5.57,1.56c1.64,8,9.58,13.27,17.8,13.27,8.91,0,16.74-6.87,16.74-15.85,0-8.15-5.65-11.5-12.32-14.42l-4.72-1.9c-3.48-1.57-9.14-3.2-9.14-7.62,0-4.69,4.56-8,9.11-8,4.35,0,8.63,2,10.67,5.58l4.56-2.92Z" transform="translate(-154 -209)" fill="#231f20"/><path d="M649.82,748.76c-2.73-5-9.38-8-15.1-8-7.61,0-15,5.11-15,13.06,0,7.34,3.7,9.3,9.68,12l5.82,2.47c4.77,2.18,10.66,4.21,10.66,10.2,0,5.77-5.63,10-11.14,10s-11.35-4.27-12.1-9.52l-5.58,1.57c1.64,7.95,9.59,13.26,17.81,13.26,8.91,0,16.73-6.87,16.73-15.84,0-8.17-5.64-11.5-12.31-14.43l-4.73-1.9c-3.47-1.56-9.13-3.2-9.13-7.61,0-4.7,4.55-7.92,9.11-8s8.63,2,10.66,5.58l4.57-2.93Z" transform="translate(-154 -209)" fill="#231f20"/><polygon points="687.01 537.87 703.6 537.87 703.6 532.57 664.85 532.57 664.85 537.87 681.3 537.87 681.3 583.85 687.01 583.85 687.01 537.87 687.01 537.87 687.01 537.87" fill="#231f20"/><polygon points="722.57 532.57 716.85 532.57 716.85 583.85 722.57 583.85 722.57 532.57 722.57 532.57 722.57 532.57" fill="#231f20"/><polygon points="757.79 537.87 774.38 537.87 774.38 532.57 735.63 532.57 735.63 537.87 752.08 537.87 752.08 583.85 757.79 583.85 757.79 537.87 757.79 537.87 757.79 537.87" fill="#231f20"/><path d="M947.07,741.57h-5.72v32.09c0,5.85.56,10.54,5,14.83a19.22,19.22,0,0,0,13.25,5.24,18.89,18.89,0,0,0,13.81-5.85c4.08-4.22,4.49-8.63,4.49-14.22V741.57h-5.71v30.52c0,4,.2,8.51-2.52,11.78a13.56,13.56,0,0,1-10.07,4.55c-3.74,0-8.08-1.77-10.33-4.9s-2.24-7.61-2.24-11.43V741.57Z" transform="translate(-154 -209)" fill="#231f20"/><polygon points="856.24 537.87 873.16 537.87 873.16 532.57 834.09 532.57 834.09 537.87 850.54 537.87 850.54 583.85 856.24 583.85 856.24 537.87 856.24 537.87 856.24 537.87" fill="#231f20"/><polygon points="1132.83 583.85 1163.01 583.85 1163.01 578.54 1138.54 578.54 1138.54 560.24 1162.4 560.24 1162.4 554.93 1138.54 554.93 1138.54 537.87 1163.01 537.87 1163.01 532.57 1132.83 532.57 1132.83 583.85 1132.83 583.85 1132.83 583.85" fill="#231f20"/><polygon points="885.92 583.85 916.1 583.85 916.1 578.54 891.62 578.54 891.62 560.24 915.47 560.24 915.47 554.93 891.62 554.93 891.62 537.87 916.1 537.87 916.1 532.57 885.92 532.57 885.92 583.85 885.92 583.85 885.92 583.85" fill="#231f20"/><polygon points="1103.64 537.87 1120.22 537.87 1120.22 532.57 1081.47 532.57 1081.47 537.87 1097.92 537.87 1097.92 583.85 1103.64 583.85 1103.64 537.87 1103.64 537.87 1103.64 537.87" fill="#231f20"/><path d="M1370.84,745.71a24.78,24.78,0,0,0-15.31-5,26.81,26.81,0,0,0-26.73,26.71c0,14.57,12.25,26.33,26.73,26.33a26.33,26.33,0,0,0,15.31-5.05v-7.07a22.4,22.4,0,0,1-15.51,6.81c-11.49,0-20.81-9.92-20.81-21.22S1343.77,746,1355.2,746a22,22,0,0,1,15.64,6.81v-7.08Z" transform="translate(-154 -209)" fill="#231f20"/><polygon points="1239.87 554.92 1239.87 532.43 1234.16 532.43 1234.16 583.71 1239.87 583.71 1239.87 560.22 1267.94 560.22 1267.94 583.71 1273.66 583.71 1273.66 532.43 1267.94 532.43 1267.94 554.92 1239.87 554.92 1239.87 554.92 1239.87 554.92" fill="#231f20"/><polygon points="1291.4 583.85 1297.1 583.85 1297.1 544.33 1337.09 586.16 1337.09 532.57 1331.38 532.57 1331.38 572.28 1291.4 530.39 1291.4 583.85 1291.4 583.85 1291.4 583.85" fill="#231f20"/><path d="M1529.92,746a21.22,21.22,0,1,1-21,21.22,21.08,21.08,0,0,1,21-21.22Zm0-5.29a26.52,26.52,0,1,0,26.72,26.59,26.74,26.74,0,0,0-26.72-26.59Z" transform="translate(-154 -209)" fill="#231f20" fill-rule="evenodd"/><polygon points="1421.91 532.57 1416.19 532.57 1416.19 583.85 1445.84 583.85 1445.84 578.54 1421.91 578.54 1421.91 532.57 1421.91 532.57 1421.91 532.57" fill="#231f20"/><path d="M1630.67,746a21.22,21.22,0,1,1-21,21.22,21.07,21.07,0,0,1,21-21.22Zm0-5.29a26.52,26.52,0,1,0,26.72,26.59,26.74,26.74,0,0,0-26.72-26.59Z" transform="translate(-154 -209)" fill="#231f20" fill-rule="evenodd"/><g clip-path="url(#42026848-95b0-4997-838d-64fc14422c41)"><path d="M1697.26,767.06v5.31h15.24c0,9.52-9.39,16-18.29,16-5.38,0-10.81-2.8-14.57-6.53a20.68,20.68,0,0,1-6-14.49c0-11.56,9.26-21.42,21-21.42,7.55,0,13.33,3.61,17.62,9.66l4.15-3.88c-5.45-7.07-12.72-11.07-21.7-11.07a26.52,26.52,0,1,0-.34,53,25.36,25.36,0,0,0,19-8.58c4.68-5.43,5.44-11.15,5.29-18.09Z" transform="translate(-154 -209)" fill="#231f20"/><polygon points="1590.49 561.81 1590.49 583.85 1596.2 583.85 1596.2 561.81 1613.01 532.57 1606.42 532.57 1593.36 555.41 1580.3 532.57 1573.7 532.57 1590.49 561.81 1590.49 561.81 1590.49 561.81" fill="#231f20"/></g><polygon points="1018.24 584.48 1023.99 584.48 1023.96 560.22 1047.62 560.22 1047.62 554.92 1023.96 554.92 1023.96 538.51 1048.23 538.51 1048.23 533.2 1018.24 533.2 1018.24 584.48 1018.24 584.48 1018.24 584.48" fill="#231f20"/><g clip-path="url(#f1aa519c-66f2-41b0-894c-b85e365bbd20)"><path d="M704.14,470.54a44.17,44.17,0,0,1,44.14,43.91c0,24.36-20,43.69-44.14,43.69S660,538.81,660,514.45a44.17,44.17,0,0,1,44.14-43.91Zm0,8.76a34.79,34.79,0,0,0-34.7,35c0,19.09,15.5,35,34.7,35s34.7-15.94,34.7-35a34.79,34.79,0,0,0-34.7-35Z" transform="translate(-154 -209)" fill="#231f20" fill-rule="evenodd"/><polygon points="23.43 128.43 14 128.43 14 213.1 23.43 213.1 23.43 128.43 23.43 128.43 23.43 128.43" fill="#231f20"/></g><polygon points="59.09 128.43 49.66 128.43 49.66 213.1 98.61 213.1 98.61 204.34 59.09 204.34 59.09 128.43 59.09 128.43 59.09 128.43" fill="#231f20"/><polygon points="124.57 128.43 115.13 128.43 115.13 213.1 164.09 213.1 164.09 204.34 124.57 204.34 124.57 128.43 124.57 128.43 124.57 128.43" fill="#231f20"/><polygon points="194.99 128.43 185.55 128.43 185.55 213.1 194.99 213.1 194.99 128.43 194.99 128.43 194.99 128.43" fill="#231f20"/><polygon points="226.49 213.1 235.92 213.1 235.92 147.85 301.95 216.92 301.95 128.43 292.52 128.43 292.52 194 226.49 124.83 226.49 213.1 226.49 213.1 226.49 213.1" fill="#231f20"/><path d="M518.29,344.72a34.8,34.8,0,0,1,34.7,35c0,19.08-15.5,35-34.7,35s-34.7-15.95-34.7-35a34.81,34.81,0,0,1,34.7-35Zm0-8.75a44.16,44.16,0,0,0-44.13,43.9c0,24.37,20,43.69,44.13,43.69s44.13-19.32,44.13-43.69A44.16,44.16,0,0,0,518.29,336Z" transform="translate(-154 -209)" fill="#231f20" fill-rule="evenodd"/><polygon points="440.46 128.43 431.03 128.43 431.03 213.1 440.46 213.1 440.46 128.43 440.46 128.43 440.46 128.43" fill="#231f20"/><polygon points="596.16 128.43 586.73 128.43 586.73 213.1 596.16 213.1 596.16 128.43 596.16 128.43 596.16 128.43" fill="#231f20"/><polygon points="627.66 213.1 637.1 213.1 637.1 147.85 703.13 216.92 703.13 128.43 693.69 128.43 693.69 194 627.66 124.83 627.66 213.1 627.66 213.1 627.66 213.1" fill="#231f20"/><path d="M932,349.1C927.53,340.79,916.53,336,907.1,336c-12.58,0-24.7,8.41-24.7,21.56,0,12.13,6.1,15.35,16,19.84l9.61,4.07c7.87,3.59,17.63,7,17.63,16.85,0,9.54-9.32,16.51-18.42,16.51s-18.74-7.08-20-15.73l-9.2,2.58c2.7,13.15,15.82,21.91,29.41,21.91,14.71,0,27.62-11.35,27.62-26.17,0-13.48-9.32-19-20.33-23.81l-7.82-3.15c-5.72-2.58-15.07-5.27-15.07-12.57,0-7.75,7.52-13.14,15-13.14,7.19,0,14.26,3.37,17.62,9.22L932,349.1Z" transform="translate(-154 -209)" fill="#231f20"/><path d="M668.36,349.31c-4.49-8.31-15.49-13.14-24.92-13.14-12.58,0-24.7,8.42-24.7,21.56,0,12.13,6.1,15.35,16,19.85l9.61,4.07c7.87,3.59,17.63,7,17.63,16.84C662,408,652.64,415,643.54,415s-18.74-7.07-20-15.72l-9.21,2.58c2.69,13.14,15.82,21.9,29.41,21.9,14.71,0,27.62-11.34,27.62-26.16,0-13.48-9.32-19-20.32-23.81l-7.82-3.15c-5.73-2.59-15.08-5.28-15.08-12.57,0-7.75,7.52-13.08,15.05-13.14s14.25,3.37,17.61,9.21l7.53-4.83Z" transform="translate(-154 -209)" fill="#231f20"/><polygon points="830.09 137.18 857.48 137.18 857.48 128.43 793.49 128.43 793.49 137.18 820.65 137.18 820.65 213.1 830.09 213.1 830.09 137.18 830.09 137.18 830.09 137.18" fill="#231f20"/><polygon points="888.8 128.43 879.37 128.43 879.37 213.1 888.8 213.1 888.8 128.43 888.8 128.43 888.8 128.43" fill="#231f20"/><polygon points="946.96 137.18 974.36 137.18 974.36 128.43 910.36 128.43 910.36 137.18 937.53 137.18 937.53 213.1 946.96 213.1 946.96 137.18 946.96 137.18 946.96 137.18" fill="#231f20"/><path d="M1159.23,337.42h-9.43v53c0,9.66.9,17.4,8.31,24.48a31.71,31.71,0,0,0,21.9,8.65,31.1,31.1,0,0,0,22.79-9.66c6.75-7,7.42-14.26,7.42-23.47v-53h-9.43v50.42c0,6.63.33,14-4.16,19.43A22.44,22.44,0,0,1,1180,414.8c-6.18,0-13.36-2.92-17.07-8.09-3.93-5.39-3.71-12.57-3.71-18.87V337.42Z" transform="translate(-154 -209)" fill="#231f20"/><polygon points="1109.57 137.18 1137.51 137.18 1137.51 128.43 1072.97 128.43 1072.97 137.18 1100.14 137.18 1100.14 213.1 1109.57 213.1 1109.57 137.18 1109.57 137.18 1109.57 137.18" fill="#231f20"/><polygon points="806.07 347.33 855.9 347.33 855.9 338.56 815.5 338.56 815.5 308.35 854.89 308.35 854.89 299.59 815.5 299.59 815.5 271.41 855.9 271.41 855.9 262.65 806.07 262.65 806.07 347.33 806.07 347.33 806.07 347.33" fill="#231f20"/><polygon points="1158.56 213.1 1208.39 213.1 1208.39 204.34 1167.98 204.34 1167.98 174.13 1207.38 174.13 1207.38 165.37 1167.98 165.37 1167.98 137.18 1208.39 137.18 1208.39 128.43 1158.56 128.43 1158.56 213.1 1158.56 213.1 1158.56 213.1" fill="#231f20"/><polygon points="757.85 271.41 785.25 271.41 785.25 262.65 721.25 262.65 721.25 271.41 748.42 271.41 748.42 347.33 757.85 347.33 757.85 271.41 757.85 271.41 757.85 271.41" fill="#231f20"/><path d="M1098.79,478.5a40.87,40.87,0,0,0-25.27-8.31,44.29,44.29,0,0,0-44.13,44.12c0,24,20.21,43.48,44.13,43.48a43.71,43.71,0,0,0,25.27-8.31V537.79c-6.75,6.74-16.06,11.23-25.61,11.23-19,0-34.36-16.39-34.36-35s15.27-35,34.14-35a36.28,36.28,0,0,1,25.83,11.23V478.5Z" transform="translate(-154 -209)" fill="#231f20"/><polygon points="982.82 299.56 982.82 262.43 973.39 262.43 973.39 347.11 982.82 347.11 982.82 308.31 1029.19 308.31 1029.19 347.11 1038.62 347.11 1038.62 262.43 1029.19 262.43 1029.19 299.56 982.82 299.56 982.82 299.56 982.82 299.56" fill="#231f20"/><polygon points="1067.91 347.33 1077.33 347.33 1077.33 282.08 1143.37 351.15 1143.37 262.65 1133.94 262.65 1133.94 328.23 1067.91 259.06 1067.91 347.33 1067.91 347.33 1067.91 347.33" fill="#231f20"/><path d="M1361.48,479a34.79,34.79,0,0,1,34.7,35c0,19.09-15.49,35-34.7,35s-34.7-15.94-34.7-35a34.79,34.79,0,0,1,34.7-35Zm0-8.76a44.17,44.17,0,0,0-44.13,43.91c0,24.37,20,43.69,44.13,43.69s44.13-19.32,44.13-43.69a44.17,44.17,0,0,0-44.13-43.91Z" transform="translate(-154 -209)" fill="#231f20" fill-rule="evenodd"/><polygon points="1283.43 262.65 1274 262.65 1274 347.33 1322.95 347.33 1322.95 338.56 1283.43 338.56 1283.43 262.65 1283.43 262.65 1283.43 262.65" fill="#231f20"/><path d="M1527.86,479a34.79,34.79,0,0,1,34.7,35c0,19.09-15.49,35-34.7,35s-34.7-15.94-34.7-35a34.79,34.79,0,0,1,34.7-35Zm0-8.76a44.17,44.17,0,0,0-44.13,43.91c0,24.37,20,43.69,44.13,43.69S1572,538.47,1572,514.1a44.17,44.17,0,0,0-44.13-43.91Z" transform="translate(-154 -209)" fill="#231f20" fill-rule="evenodd"/><path d="M1637.83,513.76v8.76H1663c0,15.72-15.5,26.5-30.21,26.5-8.87,0-17.85-4.6-24-10.78a34.15,34.15,0,0,1-9.88-23.93c0-19.07,15.28-35.36,34.6-35.36,12.47,0,22,5.95,29.08,15.95l6.85-6.41c-9-11.68-21-18.3-35.82-18.3a43.8,43.8,0,1,0-.57,87.6,41.88,41.88,0,0,0,31.34-14.16c7.75-9,9-18.41,8.76-29.87Z" transform="translate(-154 -209)" fill="#231f20"/><polygon points="1561.82 310.94 1561.82 347.33 1571.26 347.33 1571.26 310.94 1599 262.65 1588.11 262.65 1566.55 300.38 1544.99 262.65 1534.1 262.65 1561.82 310.94 1561.82 310.94 1561.82 310.94" fill="#231f20"/><polygon points="616.85 347.79 626.32 347.79 626.28 307.72 665.35 307.72 665.35 298.97 626.28 298.97 626.28 271.87 666.36 271.87 666.36 263.11 616.85 263.11 616.85 347.79 616.85 347.79 616.85 347.79" fill="#231f20"/><polygon points="1337.1 66.03 1348.38 71.58 1350.15 58.49 1337.91 53.48 1337.1 66.03 1337.1 66.03" fill="#ce0e2d"/><path d="M1370.06,209c-1.22,0-1.37.61-.07,1,3.42,1.06,110.4,35.49,110.4,35.49V233.84S1377.93,210.66,1375.29,210a41.15,41.15,0,0,0-5.23-1Z" transform="translate(-154 -209)" fill="#ce0e2d"/><polygon points="1353.83 31.17 1339.57 27.88 1338.75 40.47 1352.01 44.7 1353.83 31.17 1353.83 31.17" fill="#ce0e2d"/><polygon points="1358.02 0.08 1341.36 0.1 1340.45 14.17 1355.86 16.11 1358.02 0.08 1358.02 0.08" fill="#ce0e2d"/><polygon points="1384.96 38.36 1369.3 34.74 1366.17 49.22 1380.29 53.73 1384.96 38.36 1384.96 38.36" fill="#ce0e2d"/><path d="M1480.37,209.11H1390c-.67,0-1.14,0-1.24.18-.19.38,0,.64,1.09.78,3,.4,90.54,11.33,90.54,11.33v-12.3Z" transform="translate(-154 -209)" fill="#ce0e2d"/><polygon points="1360.09 77.35 1371.41 82.92 1375.67 68.92 1363.03 63.75 1360.09 77.35 1360.09 77.35" fill="#ce0e2d"/><polygon points="1396.6 0.05 1376.81 0.07 1372.87 18.25 1390.4 20.45 1396.6 0.05 1396.6 0.05" fill="#ce0e2d"/><g clip-path="url(#f1aa519c-66f2-41b0-894c-b85e365bbd20)"><polygon points="1389.74 74.68 1383.74 89 1396.44 95.25 1404.76 80.81 1389.74 74.68 1389.74 74.68" fill="#ce0e2d"/><path d="M1359.29,209.13c-.83.56.85,1.09,2.2,1.78.81.46,118.91,58.85,118.91,58.85v-12s-115.52-46.95-116.8-47.46c-1.91-.75-3.61-1.66-4.3-1.19Z" transform="translate(-154 -209)" fill="#ce0e2d"/><polygon points="1421.02 0.04 1411.37 23.08 1436.22 26.2 1451.3 0.01 1421.02 0.04 1421.02 0.04" fill="#ce0e2d"/><path d="M1480.39,425.87c-.06-1.16,0-144.66,0-144.66L1354,209.55c-1.79-1-1.06.5-.4,1.64,11.7,20.25,125.09,214.77,125.5,215.4,1,1.45,1.37,1,1.33-.72Z" transform="translate(-154 -209)" fill="#ce0e2d"/></g><polygon points="1403.2 42.57 1396.37 58.86 1414.14 64.53 1424.02 47.37 1403.2 42.57 1403.2 42.57" fill="#ce0e2d"/><path d="M1500.72,292.92l-10.38-6s-7.72,131.34-7.72,132.52c-.16,1.71-.2,2.94.67,2.94.65,0,.79-3.05,1-4.36.23-1.71,16.46-125.11,16.46-125.11Z" transform="translate(-154 -209)" fill="#ce0e2d"/><path d="M1532.26,311.09s-34.16,80.82-35.33,83.86c-.39,1-.3,1.28.09,1.46s.56-.27,1-1c3.15-5.49,45-78.2,45-78.2l-10.7-6.16Z" transform="translate(-154 -209)" fill="#ce0e2d"/><path d="M1521.48,304.87,1511.34,299s-23.74,111.38-24.25,113.15a4.07,4.07,0,0,0,0,.82c.11.46.29.91.88.16s.88-2.67,1.73-5.31c.27-1,31.8-103,31.8-103Z" transform="translate(-154 -209)" fill="#ce0e2d"/></svg>